<?xml version="1.0" encoding="UTF-8"?><svg width="53" height="92" version="1.1" viewBox="0 0 53 92" xmlns="http://www.w3.org/2000/svg" xmlns:xlink="http://www.w3.org/1999/xlink"><!--Generated by IJSVG (https://github.com/iconjar/IJSVG)--><g transform="scale(0.996027)"><path fill="#1F448C" d="M51.527,92.367h-50.382c-0.632,0 -1.145,-0.513 -1.145,-1.145v-42.727c0,-7.045 5.482,-12.834 12.405,-13.325v-15.183c0,-0.633 0.513,-1.145 1.145,-1.145h25.573c0.632,0 1.145,0.513 1.145,1.145v15.183c6.922,0.491 12.405,6.28 12.405,13.325v42.726c-0.001,0.633 -0.514,1.146 -1.146,1.146Zm-49.237,-2.291h48.092v-41.581c0,-6.103 -4.966,-11.069 -11.069,-11.069h-0.191c-0.632,0 -1.145,-0.513 -1.145,-1.145v-15.149h-23.282v14.004h11.641c0.632,0 1.145,0.513 1.145,1.145c0,0.632 -0.513,1.145 -1.145,1.145h-12.977c-6.103,0 -11.069,4.966 -11.069,11.069v41.581Z"></path><path fill="#1F448C" d="M41.985,20.843h-31.298c-1.473,0 -2.672,-1.199 -2.672,-2.672v-5.541c0,-1.473 1.199,-2.672 2.672,-2.672h31.298c1.473,0 2.672,1.199 2.672,2.672v5.542c0,1.473 -1.199,2.671 -2.672,2.671Zm-31.298,-8.595c-0.207,0 -0.382,0.175 -0.382,0.382v5.542c0,0.207 0.174,0.382 0.382,0.382h31.298c0.207,0 0.382,-0.175 0.382,-0.382v-5.542c0,-0.207 -0.174,-0.382 -0.382,-0.382h-31.298Z"></path><path fill="#1F448C" d="M36.005,11.834h-19.339c-1.473,0 -2.672,-1.199 -2.672,-2.672v-6.49c0.001,-1.473 1.199,-2.672 2.672,-2.672h19.339c1.473,0 2.672,1.199 2.672,2.672v6.49c7.10543e-15,1.473 -1.199,2.672 -2.672,2.672Zm-19.339,-9.544c-0.207,8.88178e-16 -0.382,0.175 -0.382,0.382v6.49c0,0.207 0.174,0.382 0.382,0.382h19.339c0.207,0 0.382,-0.175 0.382,-0.382v-6.49c0,-0.207 -0.174,-0.382 -0.382,-0.382h-19.339Z"></path><path fill="#1F448C" d="M19.6198,2.04924c0.448322,0.448322 0.448322,1.1752 0,1.62352c-0.448322,0.448322 -1.1752,0.448322 -1.62352,0c-0.448322,-0.448322 -0.448322,-1.1752 0,-1.62352c0.448322,-0.448322 1.1752,-0.448322 1.62352,-4.44089e-16"></path><path fill="#1F448C" d="M22.5818,5.01124c0.448322,0.448322 0.448322,1.1752 0,1.62352c-0.448322,0.448322 -1.1752,0.448322 -1.62352,8.88178e-16c-0.448322,-0.448322 -0.448322,-1.1752 0,-1.62352c0.448322,-0.448322 1.1752,-0.448322 1.62352,-8.88178e-16"></path><path fill="#1F448C" d="M19.4318,8.16124c0.448322,0.448322 0.448322,1.1752 0,1.62352c-0.448322,0.448322 -1.1752,0.448322 -1.62352,0c-0.448322,-0.448322 -0.448322,-1.1752 0,-1.62352c0.448322,-0.448322 1.1752,-0.448322 1.62352,0"></path><path fill="#1F448C" d="M25.9358,1.95524c0.448322,0.448322 0.448322,1.1752 0,1.62352c-0.448322,0.448322 -1.1752,0.448322 -1.62352,0c-0.448322,-0.448322 -0.448322,-1.1752 0,-1.62352c0.448322,-0.448322 1.1752,-0.448322 1.62352,-4.44089e-16"></path><path fill="#1F448C" d="M28.8978,4.91724c0.448322,0.448322 0.448322,1.1752 0,1.62352c-0.448322,0.448322 -1.1752,0.448322 -1.62352,8.88178e-16c-0.448322,-0.448322 -0.448322,-1.1752 0,-1.62352c0.448322,-0.448322 1.1752,-0.448322 1.62352,-8.88178e-16"></path><path fill="#1F448C" d="M25.7478,8.06724c0.448322,0.448322 0.448322,1.1752 0,1.62352c-0.448322,0.448322 -1.1752,0.448322 -1.62352,0c-0.448322,-0.448322 -0.448322,-1.1752 0,-1.62352c0.448322,-0.448322 1.1752,-0.448322 1.62352,0"></path><path fill="#1F448C" d="M32.2518,2.04924c0.448322,0.448322 0.448322,1.1752 0,1.62352c-0.448322,0.448322 -1.1752,0.448322 -1.62352,0c-0.448322,-0.448322 -0.448322,-1.1752 0,-1.62352c0.448322,-0.448322 1.1752,-0.448322 1.62352,-4.44089e-16"></path><path fill="#1F448C" d="M35.2138,5.01124c0.448322,0.448322 0.448322,1.1752 0,1.62352c-0.448322,0.448322 -1.1752,0.448322 -1.62352,8.88178e-16c-0.448322,-0.448322 -0.448322,-1.1752 0,-1.62352c0.448322,-0.448322 1.1752,-0.448322 1.62352,-8.88178e-16"></path><path fill="#1F448C" d="M32.0638,8.16124c0.448322,0.448322 0.448322,1.1752 0,1.62352c-0.448322,0.448322 -1.1752,0.448322 -1.62352,0c-0.448322,-0.448322 -0.448322,-1.1752 0,-1.62352c0.448322,-0.448322 1.1752,-0.448322 1.62352,0"></path><path fill="#1F448C" d="M30.3398,35.3232c0.448322,0.448322 0.448322,1.1752 0,1.62352c-0.448322,0.448322 -1.1752,0.448322 -1.62352,0c-0.448322,-0.448322 -0.448322,-1.1752 0,-1.62352c0.448322,-0.448322 1.1752,-0.448322 1.62352,0"></path><path fill="#1F448C" d="M26.336,67.834l0.763,1.321l0.762,1.322h-1.525h-1.526l0.763,-1.322Z"></path><path fill="#1F448C" d="M27.876,71.622c-0.004,0 -0.009,0.001 -0.015,0h-3.05c-0.409,0 -0.787,-0.218 -0.991,-0.573c-0.205,-0.354 -0.205,-0.791 0,-1.145l1.525,-2.642c0.204,-0.354 0.582,-0.573 0.991,-0.573c0.409,0 0.787,0.218 0.991,0.573l1.442,2.498c0.157,0.196 0.251,0.445 0.251,0.716c0.001,0.633 -0.511,1.146 -1.144,1.146Z"></path><path fill="#1F448C" d="M21.7027,61.2343c0.869698,0.869698 0.869698,2.27976 0,3.14945c-0.869698,0.869698 -2.27976,0.869698 -3.14945,0c-0.869698,-0.869698 -0.869698,-2.27976 -3.55271e-15,-3.14945c0.869698,-0.869698 2.27976,-0.869698 3.14945,0"></path><path fill="#1F448C" d="M20.128,66.181c-1.859,0 -3.372,-1.513 -3.372,-3.372c0,-1.86 1.513,-3.372 3.372,-3.372c1.859,0 3.372,1.513 3.372,3.372c-0.001,1.859 -1.513,3.372 -3.372,3.372Zm0,-4.454c-0.596,0 -1.082,0.485 -1.082,1.082c0,0.597 0.485,1.082 1.082,1.082c0.596,0 1.082,-0.485 1.082,-1.082c0,-0.597 -0.486,-1.082 -1.082,-1.082Z"></path><path fill="#1F448C" d="M34.1187,61.2343c0.869698,0.869698 0.869698,2.27976 0,3.14945c-0.869698,0.869698 -2.27976,0.869698 -3.14945,0c-0.869698,-0.869698 -0.869698,-2.27976 -3.55271e-15,-3.14945c0.869698,-0.869698 2.27976,-0.869698 3.14945,0"></path><path fill="#1F448C" d="M32.544,66.181c-1.86,0 -3.372,-1.513 -3.372,-3.372c0,-1.86 1.513,-3.372 3.372,-3.372c1.859,0 3.372,1.513 3.372,3.372c0,1.859 -1.513,3.372 -3.372,3.372Zm0,-4.454c-0.597,0 -1.082,0.485 -1.082,1.082c0,0.597 0.485,1.082 1.082,1.082c0.596,0 1.082,-0.485 1.082,-1.082c0,-0.597 -0.485,-1.082 -1.082,-1.082Z"></path><path fill="#1F448C" d="M18.239,76.579c-0.632,0 -1.145,-0.513 -1.145,-1.145v-5.175c0,-0.181 -0.153,-0.334 -0.333,-0.334c-0.632,0 -1.145,-0.513 -1.145,-1.145c0,-0.632 0.513,-1.145 1.145,-1.145c1.446,0 2.623,1.177 2.623,2.624v5.175c-3.55271e-15,0.633 -0.512,1.145 -1.145,1.145Z"></path><path fill="#1F448C" d="M35.779,73.252c-0.632,0 -1.145,-0.513 -1.145,-1.145c0,-0.632 0.513,-1.145 1.145,-1.145c1.223,0 2.217,-0.994 2.217,-2.217l-0.022,-7.189c0,-3.913 -3.184,-7.097 -7.097,-7.097h-9.104c-3.913,0 -7.097,3.184 -7.097,7.097v7.189c0,1.223 0.994,2.217 2.217,2.217c0.632,0 1.145,0.513 1.145,1.145c0,0.632 -0.513,1.145 -1.145,1.145c-2.485,0 -4.507,-2.022 -4.507,-4.507v-7.189c0,-5.176 4.211,-9.387 9.387,-9.387h9.104c5.176,0 9.387,4.211 9.387,9.387l0.022,7.189c0,2.486 -2.022,4.507 -4.507,4.507Z"></path><path fill="#1F448C" d="M20.235,80.06c-1.732,0 -3.142,-1.41 -3.142,-3.143v-1.797c0,-0.633 0.513,-1.145 1.145,-1.145c0.632,0 1.145,0.513 1.145,1.145v1.797c0,0.47 0.382,0.852 0.852,0.852c0.47,0 0.852,-0.382 0.852,-0.852v-1.797c0,-0.633 0.513,-1.145 1.145,-1.145c0.632,0 1.145,0.513 1.145,1.145v1.797c0,1.733 -1.41,3.143 -3.142,3.143Z"></path><path fill="#1F448C" d="M24.295,80.06c-1.732,0 -3.142,-1.41 -3.142,-3.143v-1.797c0,-0.633 0.513,-1.145 1.145,-1.145c0.632,0 1.145,0.513 1.145,1.145v1.797c0,0.47 0.382,0.852 0.852,0.852c0.47,0 0.852,-0.382 0.852,-0.852v-1.797c0,-0.633 0.513,-1.145 1.145,-1.145c0.632,0 1.145,0.513 1.145,1.145v1.797c0,1.733 -1.41,3.143 -3.142,3.143Z"></path><path fill="#1F448C" d="M28.355,80.06c-1.732,0 -3.142,-1.41 -3.142,-3.143v-1.797c0,-0.633 0.513,-1.145 1.145,-1.145c0.632,0 1.145,0.513 1.145,1.145v1.797c0,0.47 0.382,0.852 0.852,0.852c0.47,0 0.852,-0.382 0.852,-0.852v-1.797c0,-0.633 0.513,-1.145 1.145,-1.145c0.632,0 1.145,0.513 1.145,1.145v1.797c0,1.733 -1.41,3.143 -3.142,3.143Z"></path><path fill="#1F448C" d="M32.414,80.06c-1.732,0 -3.142,-1.41 -3.142,-3.143v-1.797c0,-0.633 0.513,-1.145 1.145,-1.145c0.632,0 1.145,0.513 1.145,1.145v1.797c0,0.47 0.382,0.852 0.852,0.852c0.47,0 0.853,-0.382 0.853,-0.852l0.02,-6.658c0,-1.447 1.177,-2.624 2.624,-2.624c0.632,0 1.145,0.513 1.145,1.145c0,0.632 -0.513,1.145 -1.145,1.145c-0.181,0 -0.334,0.153 -0.334,0.334l-0.02,6.658c0,1.733 -1.41,3.143 -3.143,3.143Z"></path><path fill="#1F448C" d="M40.826,50.822c-1.863,0 -3.604,-1 -4.545,-2.609c-0.017,-0.03 -0.034,-0.06 -0.048,-0.091c-0.54,-0.868 -1.5,-1.404 -2.526,-1.404c-1.024,0 -1.984,0.536 -2.526,1.404c-0.013,0.026 -0.026,0.053 -0.041,0.078c-0.939,1.617 -2.684,2.622 -4.553,2.622c-1.863,0 -3.604,-1 -4.545,-2.609c-0.018,-0.031 -0.035,-0.063 -0.05,-0.095c-0.542,-0.866 -1.5,-1.4 -2.523,-1.4c-1.024,0 -1.984,0.536 -2.526,1.404c-0.013,0.027 -0.026,0.053 -0.041,0.078c-0.94,1.617 -2.684,2.621 -4.553,2.621c-1.863,0 -3.604,-1 -4.545,-2.609c-0.017,-0.03 -0.034,-0.06 -0.048,-0.091c-0.54,-0.868 -1.5,-1.404 -2.526,-1.404c-1.052,0 -2.037,0.565 -2.568,1.475c-0.319,0.546 -1.023,0.729 -1.566,0.41c-0.546,-0.319 -0.73,-1.021 -0.411,-1.567c0.941,-1.609 2.683,-2.608 4.545,-2.608c1.869,0 3.613,1.005 4.553,2.621c0.016,0.028 0.031,0.056 0.045,0.085c0.542,0.864 1.499,1.397 2.521,1.397c1.028,0 1.99,-0.539 2.53,-1.412c0.013,-0.029 0.028,-0.056 0.044,-0.083c0.941,-1.609 2.683,-2.608 4.545,-2.608c1.868,0 3.613,1.004 4.553,2.621c0.017,0.029 0.033,0.06 0.047,0.09c0.542,0.861 1.498,1.392 2.518,1.392c1.029,0 1.99,-0.539 2.53,-1.411c0.013,-0.029 0.028,-0.057 0.044,-0.084c0.941,-1.609 2.683,-2.608 4.545,-2.608c1.869,0 3.613,1.005 4.553,2.621c0.016,0.028 0.031,0.056 0.045,0.085c0.542,0.864 1.499,1.397 2.521,1.397c1.028,0 1.99,-0.539 2.53,-1.412c0.013,-0.029 0.028,-0.056 0.044,-0.083c0.941,-1.609 2.683,-2.608 4.545,-2.608c1.868,0 3.613,1.004 4.553,2.621c0.13,0.224 0.18,0.486 0.142,0.743c-0.092,0.625 -0.67,1.066 -1.301,0.97c-0.393,-0.058 -0.71,-0.307 -0.868,-0.639c-0.541,-0.869 -1.501,-1.405 -2.526,-1.405c-1.024,0 -1.984,0.536 -2.526,1.404c-0.013,0.026 -0.026,0.053 -0.041,0.078c-0.938,1.619 -2.682,2.623 -4.55,2.623Z"></path><path fill="#1F448C" d="M9.16,57.611c-2.369,0 -4.297,-1.927 -4.297,-4.297c0,-2.369 1.928,-4.297 4.297,-4.297c2.369,0 4.297,1.927 4.297,4.297c0,2.37 -1.928,4.297 -4.297,4.297Zm0,-6.303c-1.106,0 -2.007,0.9 -2.007,2.007c0,1.106 0.901,2.006 2.007,2.006c1.106,0 2.007,-0.9 2.007,-2.006c0,-1.107 -0.9,-2.007 -2.007,-2.007Z"></path><path fill="#1F448C" d="M8.417,62.129c-1.648,0 -2.989,-1.341 -2.989,-2.989c0,-1.648 1.34,-2.989 2.989,-2.989c1.649,0 2.989,1.341 2.989,2.989c0,1.648 -1.341,2.989 -2.989,2.989Zm0,-3.688c-0.385,0 -0.699,0.313 -0.699,0.699c0,0.386 0.313,0.699 0.699,0.699c0.386,0 0.699,-0.314 0.699,-0.699c0,-0.385 -0.314,-0.699 -0.699,-0.699Z"></path><path fill="#1F448C" d="M6.82076,85.2572c0.448322,0.448322 0.448322,1.1752 0,1.62352c-0.448322,0.448322 -1.1752,0.448322 -1.62352,0c-0.448322,-0.448322 -0.448322,-1.1752 -8.88178e-16,-1.62352c0.448322,-0.448322 1.1752,-0.448322 1.62352,0"></path><path fill="#1F448C" d="M6.008,83.206c-0.632,0 -1.145,-0.513 -1.145,-1.145v-16.721c0,-0.633 0.513,-1.145 1.145,-1.145c0.632,0 1.145,0.513 1.145,1.145v16.721c0.001,0.633 -0.512,1.145 -1.145,1.145Z"></path></g></svg>