<?xml version="1.0" standalone="no"?>
<!DOCTYPE svg PUBLIC "-//W3C//DTD SVG 20010904//EN"
 "http://www.w3.org/TR/2001/REC-SVG-20010904/DTD/svg10.dtd">
<svg version="1.0" xmlns="http://www.w3.org/2000/svg"
 width="736.000000pt" height="736.000000pt" viewBox="0 0 736.000000 736.000000"
 preserveAspectRatio="xMidYMid meet">
<metadata>
Created by potrace 1.11, written by Peter Selinger 2001-2013
</metadata>
<g transform="translate(0.000000,736.000000) scale(0.100000,-0.100000)"
fill="#000000" stroke="none">
<path d="M5330 7345 c-187 -52 -334 -192 -390 -374 -24 -76 -26 -211 -5 -290
33 -127 101 -224 214 -308 94 -69 125 -103 159 -173 23 -47 27 -68 27 -140 0
-76 -4 -93 -33 -152 -60 -123 -170 -191 -307 -190 -38 0 -88 6 -110 14 l-40
15 -8 74 c-21 195 -126 390 -276 515 -305 253 -749 241 -1037 -28 -76 -72
-124 -141 -124 -180 0 -41 48 -88 90 -88 27 0 46 15 123 94 51 51 107 101 126
111 l33 17 35 -34 c82 -78 123 -179 123 -303 0 -117 -19 -167 -116 -313 -138
-205 -191 -325 -219 -497 -56 -342 67 -701 320 -933 l64 -59 -177 -183 -177
-182 -65 22 c-229 78 -608 -21 -952 -249 -135 -89 -136 -91 -1192 -1169 -610
-623 -871 -896 -886 -927 -30 -62 -36 -141 -16 -202 18 -54 87 -124 836 -858
374 -366 394 -381 499 -373 31 2 77 14 101 26 55 26 254 226 1795 1802 202
206 287 321 380 514 143 295 189 570 126 755 l-22 64 118 121 c64 67 232 237
372 379 238 240 257 257 279 248 39 -19 152 -13 202 10 138 62 200 228 136
364 -32 70 -537 569 -611 605 -72 35 -171 34 -241 -3 -65 -33 -116 -92 -137
-158 -21 -64 -21 -101 -1 -169 l16 -53 -124 -124 c-67 -67 -126 -123 -131
-123 -4 0 -40 33 -81 73 -170 167 -256 374 -257 612 0 213 42 335 189 550 90
131 127 208 147 301 19 89 19 157 -1 251 -18 89 -51 168 -98 233 l-34 47 48 6
c89 11 211 -14 305 -61 201 -101 334 -317 335 -545 0 -73 8 -88 65 -122 208
-121 469 -89 640 79 104 102 155 225 155 377 0 182 -73 319 -234 438 -96 70
-146 136 -172 225 -69 246 153 493 403 447 31 -6 58 -13 60 -15 3 -2 -31 -55
-75 -118 -93 -133 -102 -149 -102 -180 0 -35 22 -61 104 -122 109 -83 272
-257 354 -380 120 -179 205 -384 249 -601 28 -138 25 -484 -5 -618 -44 -198
-109 -361 -212 -528 -38 -61 -60 -108 -60 -127 0 -61 65 -105 123 -83 34 13
121 144 187 283 290 609 219 1321 -186 1858 -41 54 -132 154 -203 222 l-130
125 90 129 c49 71 92 140 96 153 15 59 -47 118 -169 161 -83 29 -231 36 -308
15z m-414 -2877 c241 -240 264 -266 264 -296 0 -24 -9 -42 -29 -63 -35 -34
-73 -38 -114 -10 -55 36 -515 501 -519 525 -6 31 15 81 39 95 10 6 35 11 56
11 37 0 49 -10 303 -262z m-259 -260 c90 -90 163 -167 163 -173 0 -6 -110
-120 -244 -254 l-244 -244 -166 163 c-91 90 -166 168 -166 174 0 10 480 496
490 496 2 0 78 -73 167 -162z m-458 -802 c2 -4 -82 -94 -186 -200 -105 -105
-198 -202 -207 -216 -25 -38 -20 -77 13 -111 30 -30 71 -38 101 -19 8 5 47 42
87 82 40 40 76 69 80 64 16 -16 6 -190 -16 -281 -44 -180 -148 -399 -259 -547
-31 -41 -165 -186 -298 -322 l-240 -246 -60 41 c-182 126 -293 298 -339 525
-45 222 -104 346 -234 484 l-51 54 73 76 c275 284 277 287 277 314 0 59 -36
95 -95 96 -39 1 -45 -4 -225 -189 l-185 -189 -89 44 c-49 24 -96 44 -103 44
-7 0 -13 4 -13 9 0 6 87 97 193 204 149 151 213 208 287 257 189 123 424 219
588 239 74 9 172 6 172 -6 0 -3 -34 -41 -75 -86 -62 -68 -75 -88 -75 -115 0
-18 5 -42 11 -53 13 -26 63 -47 95 -41 16 3 103 84 231 213 l207 209 165 -162
c91 -90 168 -167 170 -172z m-2043 -660 c39 -13 87 -32 107 -42 l37 -19 -516
-525 c-283 -289 -522 -540 -530 -557 -12 -29 -12 -37 0 -67 25 -60 92 -75 143
-32 15 13 259 260 542 549 460 470 516 524 533 514 34 -21 115 -131 153 -205
24 -49 47 -121 70 -222 63 -276 175 -459 376 -612 l69 -52 -113 -116 c-62 -63
-345 -352 -630 -641 -520 -530 -545 -552 -587 -529 -28 15 -1107 1075 -1119
1098 -8 18 -8 30 3 55 12 28 1371 1427 1386 1427 4 0 38 -11 76 -24z"/>
<path d="M1029 1407 c-18 -12 -39 -38 -47 -58 -39 -103 98 -191 179 -114 56
55 43 146 -26 179 -45 22 -66 20 -106 -7z"/>
<path d="M3253 5179 c-44 -28 -69 -95 -54 -142 39 -117 194 -130 243 -20 54
122 -77 234 -189 162z"/>
<path d="M3280 4787 c-56 -28 -59 -87 -14 -245 47 -164 125 -300 244 -426 153
-163 248 -197 295 -105 24 45 6 89 -55 134 -113 83 -234 243 -284 376 -13 36
-32 101 -40 145 -13 64 -22 84 -46 107 -33 29 -61 34 -100 14z"/>
<path d="M6169 4315 c-14 -8 -32 -28 -39 -45 -12 -28 -10 -38 13 -94 77 -189
85 -363 23 -544 -130 -386 -557 -591 -945 -453 -101 35 -176 81 -259 156 -56
52 -70 60 -105 60 -51 0 -87 -39 -87 -93 0 -33 8 -44 69 -102 206 -195 516
-287 791 -234 361 68 635 321 732 674 19 72 23 108 23 235 -1 163 -11 219 -67
353 -40 95 -85 122 -149 87z"/>
<path d="M6632 4190 c-35 -33 -37 -65 -8 -139 37 -95 45 -125 55 -216 12 -105
0 -211 -39 -326 -35 -104 -33 -137 7 -169 58 -46 126 -9 161 87 48 135 56 183
56 333 -1 116 -5 161 -22 223 -28 101 -70 194 -96 213 -30 21 -88 18 -114 -6z"/>
</g>
</svg>
